name symmetric_stride_kinematics_HTD_Minus_6.mot
datacolumns 38
datarows 12
range 1.47510173 1.48690254
endheader
                time	/jointset/ground_pelvis/pelvis_tilt/value	/jointset/ground_pelvis/pelvis_list/value	/jointset/ground_pelvis/pelvis_rotation/value	/jointset/ground_pelvis/pelvis_tx/value	/jointset/ground_pelvis/pelvis_ty/value	/jointset/ground_pelvis/pelvis_tz/value	/jointset/hip_r/hip_flexion_r/value	/jointset/hip_r/hip_adduction_r/value	/jointset/hip_r/hip_rotation_r/value	/jointset/knee_r/knee_angle_r/value	/jointset/ankle_r/ankle_angle_r/value	/jointset/subtalar_r/subtalar_angle_r/value	/jointset/mtp_r/mtp_angle_r/value	/jointset/hip_l/hip_flexion_l/value	/jointset/hip_l/hip_adduction_l/value	/jointset/hip_l/hip_rotation_l/value	/jointset/knee_l/knee_angle_l/value	/jointset/ankle_l/ankle_angle_l/value	/jointset/subtalar_l/subtalar_angle_l/value	/jointset/mtp_l/mtp_angle_l/value	/jointset/back/lumbar_extension/value	/jointset/back/lumbar_bending/value	/jointset/back/lumbar_rotation/value	/jointset/acromial_r/arm_flex_r/value	/jointset/acromial_r/arm_add_r/value	/jointset/acromial_r/arm_rot_r/value	/jointset/elbow_r/elbow_flex_r/value	/jointset/radioulnar_r/pro_sup_r/value	/jointset/radius_hand_r/wrist_flex_r/value	/jointset/radius_hand_r/wrist_dev_r/value	/jointset/acromial_l/arm_flex_l/value	/jointset/acromial_l/arm_add_l/value	/jointset/acromial_l/arm_rot_l/value	/jointset/elbow_l/elbow_flex_l/value	/jointset/radioulnar_l/pro_sup_l/value	/jointset/radius_hand_l/wrist_flex_l/value	/jointset/radius_hand_l/wrist_dev_l/value	
          1.47510173	         -6.41199326	         -5.50274220	         13.34236524	         16.21247369	          0.98038163	          0.30756082	         78.74388060	         -6.30879974	         -1.14399640	        -87.11167006	         16.14229620	        -22.36149386	          2.65911567	          4.15658252	        -10.84946407	          9.91981104	        -64.56383849	        -26.67980631	         -9.21050616	         -9.01109411	        -17.06712945	          6.11676180	         -9.09799048	        -74.10317478	         -1.12932505	         -0.19749101	         83.89757643	         74.64310368	         11.95458529	          7.06372767	         74.51726706	         -4.05968444	         -0.00150433	         93.43800073	         84.26321668	         11.54296869	          7.64246549	
          1.47571164	         -6.38779290	         -5.49329713	         13.23935309	         16.21891433	          0.98074677	          0.30758026	         78.58632779	         -6.27134346	         -1.18160772	        -86.33490472	         15.99395638	        -22.22056446	          2.94268122	          4.12931143	        -10.82724487	          9.90045232	        -64.89967172	        -26.76711803	         -9.11041079	         -8.91522058	        -17.15630752	          6.15325976	         -9.05427987	        -73.99400100	         -1.26204267	         -0.24258948	         83.48455162	         74.76684033	         11.89655580	          7.05631288	         74.54960987	         -4.30399705	         -0.00650481	         92.72732325	         84.34420297	         11.51189899	          7.62837621	
          1.47763870	         -6.27898947	         -5.45733841	         12.91943840	         16.23926247	          0.98196779	          0.30765903	         78.01008046	         -6.14835810	         -1.29911487	        -83.86606718	         15.50421276	        -21.72967199	          3.87550110	          4.01959135	        -10.75280240	          9.83721650	        -65.95071989	        -26.97934309	         -8.83944575	         -8.62552777	        -17.47932043	          6.27384858	         -8.93165963	        -73.61975631	         -1.70598767	         -0.42852139	         82.24238309	         75.11056985	         11.70830149	          7.03042677	         74.61482100	         -5.11118913	         -0.04686594	         90.54691175	         84.53043347	         11.40277497	          7.57711811	
          1.47903533	         -6.17150931	         -5.42752181	         12.69528500	         16.25400972	          0.98291118	          0.30773668	         77.52210892	         -6.05660090	         -1.38354156	        -82.06779890	         15.12836757	        -21.33846362	          4.58062991	          3.92211232	        -10.69603338	          9.79125711	        -66.70485212	        -27.08174225	         -8.71150329	         -8.43393638	        -17.74895313	          6.36838201	         -8.85935096	        -73.32368814	         -2.04955756	         -0.61033984	         81.40309931	         75.30705391	         11.56805687	          7.00730668	         74.62312967	         -5.72080507	         -0.11574410	         89.02836371	         84.60463823	         11.31352231	          7.53742683	
          1.47903533	         -6.17150931	         -5.42752181	         12.69528500	         16.25400972	          0.98291118	          0.30773668	         77.52210892	         -6.05660090	         -1.38354156	        -82.06779890	         15.12836757	        -21.33846362	          4.58062991	          3.92211232	        -10.69603338	          9.79125711	        -66.70485212	        -27.08174225	         -8.71150329	         -8.43393638	        -17.74895313	          6.36838201	         -8.85935096	        -73.32368814	         -2.04955756	         -0.61033984	         81.40309931	         75.30705391	         11.56805687	          7.00730668	         74.62312967	         -5.72080507	         -0.11574410	         89.02836371	         84.60463823	         11.31352231	          7.53742683	
          1.47964524	         -6.11755926	         -5.41401148	         12.59995184	         16.26045035	          0.98333720	          0.30777690	         77.29154990	         -6.01618764	         -1.42028832	        -81.28137223	         14.95853559	        -21.16037535	          4.89514557	          3.87588580	        -10.67079292	          9.77158644	        -67.03263843	        -27.11517969	         -8.67907790	         -8.35629664	        -17.87515552	          6.41202656	         -8.83249216	        -73.18855962	         -2.20494683	         -0.70355366	         81.05290816	         75.37837956	         11.50596171	          6.99591526	         74.61560942	         -5.99149555	         -0.15957164	         88.38146033	         84.62258897	         11.27194664	          7.52030224	
          1.48157231	         -5.92712149	         -5.37799768	         12.31183236	         16.28080297	          0.98472446	          0.30793441	         76.50354992	         -5.88773807	         -1.54163902	        -78.79535858	         14.39728396	        -20.58195306	          5.90840803	          3.72883382	        -10.59659670	          9.71446702	        -68.06630215	        -27.18951889	         -8.68277735	         -8.14136776	        -18.29565922	          6.56784738	         -8.76709819	        -72.74231843	         -2.71452813	         -1.06350838	         80.01149806	         75.53848690	         11.30690348	          6.95362049	         74.53933030	         -6.84942243	         -0.38296113	         86.40253739	         84.61972086	         11.12972002	          7.46494306	
          1.48296894	         -5.77477639	         -5.36258880	         12.11546641	         16.29555887	          0.98576014	          0.30807693	         75.88268061	         -5.79201494	         -1.63614100	        -76.99572098	         13.96712562	        -20.15899694	          6.65822747	          3.62813645	        -10.55200603	          9.67927901	        -68.81551282	        -27.21891967	         -8.77271078	         -8.01484028	        -18.61435436	          6.70130312	         -8.73738972	        -72.40094399	         -3.10763884	         -1.37233006	         79.31842891	         75.59908533	         11.16012449	          6.91938661	         74.43083126	         -7.47163253	         -0.63202017	         85.03002209	         84.56179976	         11.01658875	          7.42449547	
          1.48296894	         -5.77477639	         -5.36258880	         12.11546641	         16.29555887	          0.98576014	          0.30807693	         75.88268061	         -5.79201494	         -1.63614100	        -76.99572098	         13.96712562	        -20.15899694	          6.65822747	          3.62813645	        -10.55200603	          9.67927901	        -68.81551282	        -27.21891967	         -8.77271078	         -8.01484028	        -18.61435436	          6.70130312	         -8.73738972	        -72.40094399	         -3.10763884	         -1.37233006	         79.31842891	         75.59908533	         11.16012449	          6.91938661	         74.43083126	         -7.47163253	         -0.63202017	         85.03002209	         84.56179976	         11.01658875	          7.42449547	
          1.48357885	         -5.70554925	         -5.35960926	         12.03290770	         16.30200496	          0.98621831	          0.30814629	         75.60006612	         -5.74898029	         -1.67933179	        -76.21123976	         13.77319527	        -19.97600931	          6.98926838	          3.58723691	        -10.53578274	          9.66583710	        -69.14314416	        -27.22652998	         -8.83107991	         -7.96731140	        -18.75566325	          6.76566674	         -8.72883162	        -72.24709350	         -3.28735842	         -1.51537552	         79.03200706	         75.61365924	         11.09537755	          6.90431839	         74.36872407	         -7.74335072	         -0.76457222	         84.44689604	         84.52260941	         10.96463536	          7.40704033	
          1.48550591	         -5.47720924	         -5.36678797	         11.78218261	         16.32238524	          0.98768583	          0.30839090	         74.66457554	         -5.60383178	         -1.82241609	        -73.74190885	         13.13816263	        -19.41449982	          8.04402553	          3.47083302	        -10.49918134	          9.63062885	        -70.18040570	        -27.22757709	         -9.05879448	         -7.84848388	        -19.20883901	          6.99387962	         -8.71563592	        -71.74337052	         -3.88948109	         -1.99593477	         78.19204820	         75.60852267	         10.88868642	          6.85564496	         74.11269986	         -8.60210657	         -1.27321204	         82.66948012	         84.34514608	         10.78969920	          7.35202599	
          1.48690254	         -5.30160276	         -5.38686465	         11.60619784	         16.33717277	          0.98876834	          0.30858814	         73.94726070	         -5.48552533	         -1.92888000	        -71.96444940	         12.66012762	        -19.02864580	          8.80986472	          3.39542437	        -10.48568932	          9.61000444	        -70.93332478	        -27.20240122	         -9.23506368	         -7.79522288	        -19.54509501	          7.18065523	         -8.71428937	        -71.36320108	         -4.35625448	         -2.37527647	         77.64498828	         75.55449381	         10.73740987	          6.81897786	         73.87062392	         -9.22445614	         -1.71985316	         81.44301057	         84.16903434	         10.65318239	          7.31283391	
